<?xml version="1.0" encoding="iso-8859-1"?>
<!-- Generator: Adobe Illustrator 19.0.0, SVG Export Plug-In . SVG Version: 6.00 Build 0)  -->
<svg xmlns="http://www.w3.org/2000/svg" xmlns:xlink="http://www.w3.org/1999/xlink" version="1.1" id="Capa_1" x="0px" y="0px" viewBox="0 0 511.944 511.944" style="enable-background:new 0 0 511.944 511.944;" xml:space="preserve" width="512px" height="512px">
<g>
	<g>
		<g>
			<path d="M486.344,170.618h-53.53c-9.921-30.717-26.414-58.905-48.333-82.603c-40.953-43.992-97.965-69.54-158.054-70.827     c-0.119,0-0.256,0-0.367,0l-4.25-0.171l-4.181,0.085c-0.111,0-0.247,0-0.367,0C157.168,18.389,100.151,43.937,59.191,87.93v0.051     c-78.922,85.098-78.922,216.641,0,301.739l0.051,0.051c40.956,43.992,97.971,69.54,158.063,70.827c0.119,0,0.256,0,0.367,0     l4.139,0.154c31.576,0.047,62.79-6.72,91.511-19.84c19.107,21.137,41.542,39.008,66.415,52.907c2.61,1.479,5.804,1.479,8.414,0     c122.385-69.495,123.793-183.433,123.793-188.245V196.218C511.944,182.079,500.483,170.618,486.344,170.618z M166.344,41.85     c-21.512,22.474-37.315,49.783-46.08,79.633c-15.284-7.549-29.563-16.98-42.505-28.075     C102.456,69.011,132.933,51.272,166.344,41.85z M66.24,106.029c14.897,12.815,31.432,23.593,49.169,32.051     c-7.979,30.126-12.269,61.11-12.774,92.271H17.412C19.245,184.599,36.447,140.8,66.24,106.029z M17.412,247.418h85.222     c0.513,31.187,4.811,62.197,12.8,92.348c-17.712,8.478-34.221,19.271-49.092,32.094     C36.484,337.072,19.243,293.225,17.412,247.418z M77.828,384.463c12.918-11.09,27.175-20.519,42.436-28.066     c8.776,29.813,24.578,57.084,46.08,79.522C132.967,426.517,102.515,408.814,77.828,384.463z M213.278,442.874     c-31.164-5.453-60.126-40.457-77.355-93.525c24.657-9.843,50.823-15.371,77.355-16.341V442.874z M213.278,315.966     c-28.09,0.964-55.816,6.668-82.005,16.87c-7.188-27.922-11.072-56.591-11.571-85.419h93.577V315.966z M213.278,161.931v68.42     h-93.577c0.503-28.798,4.378-57.437,11.546-85.333c26.188,10.239,53.928,15.944,82.031,16.87V161.931z M213.278,144.821     c-26.543-0.949-52.722-6.481-77.38-16.35c17.229-53.094,46.199-88.115,77.38-93.534V144.821z M414.895,170.618h-79.479     c-1.9-11.196-4.289-22.047-7.168-32.555c17.768-8.481,34.328-19.288,49.246-32.137     C393.808,125.024,406.484,146.95,414.895,170.618z M365.905,93.408c-12.944,11.094-27.222,20.528-42.505,28.083     c-8.774-29.858-24.592-57.171-46.123-79.642C310.704,51.267,341.196,69.006,365.905,93.408z M230.344,34.938     c31.172,5.461,60.143,40.474,77.38,93.577c-24.661,9.855-50.84,15.372-77.38,16.307V34.938z M230.344,161.888     c28.117-0.922,55.872-6.627,82.074-16.87c2.202,8.311,4.087,16.845,5.658,25.6h-36.531c-14.138,0-25.6,11.461-25.6,25.6v34.133     h-25.6V161.888z M230.344,247.418h25.6v58.155c0.06,4.245,0.344,8.483,0.853,12.698c-8.77-1.247-17.6-2.03-26.453-2.347V247.418z      M230.344,443.445V332.964c9.843,0.373,19.653,1.364,29.372,2.97c7.07,33.252,21.529,64.487,42.308,91.392     C279.317,437.034,255.022,442.497,230.344,443.445z M494.878,305.555c0,4.369-1.638,106.394-110.933,170.94     c-23.604-13.709-44.704-31.335-62.396-52.122c-0.128-0.128-0.213-0.29-0.35-0.401c-23.398-27.712-39.187-61.033-45.815-96.691     c-0.041-0.388-0.11-0.773-0.205-1.152c-1.256-6.785-1.98-13.659-2.167-20.557V196.218c0-4.713,3.82-8.533,8.533-8.533h204.8     c4.713,0,8.533,3.82,8.533,8.533V305.555z" fill="#62c09e"/>
			<path d="M460.744,204.751c-4.713,0-8.533,3.82-8.533,8.533s3.821,8.533,8.533,8.533v83.627     c-0.051,3.217-2.082,79.479-81.604,133.683c-3.895,2.653-4.902,7.962-2.249,11.857c2.653,3.895,7.962,4.902,11.857,2.249     c86.758-59.145,89.011-143.949,89.062-147.661v-83.755C477.811,212.392,470.17,204.751,460.744,204.751z" fill="#62c09e"/>
			<path d="M307.144,305.572v-83.755h93.867c4.713,0,8.533-3.82,8.533-8.533s-3.82-8.533-8.533-8.533h-93.867     c-9.426,0-17.067,7.641-17.067,17.067v83.755c2.398,34.912,14.812,68.391,35.755,96.427c2.766,3.817,8.104,4.669,11.921,1.903     s4.669-8.104,1.903-11.921C320.886,366.821,309.615,336.865,307.144,305.572z" fill="#62c09e"/>
			<path d="M441.177,265.918c-3.332-3.331-8.734-3.331-12.066,0l-63.3,63.3l-9.967-9.967c-3.348-3.234-8.671-3.188-11.962,0.104     c-3.292,3.292-3.338,8.614-0.104,11.962l16,16c3.332,3.331,8.734,3.331,12.066,0l69.333-69.333     C444.509,274.652,444.509,269.25,441.177,265.918z" fill="#62c09e"/>
		</g>
	</g>
</g>
<g>
</g>
<g>
</g>
<g>
</g>
<g>
</g>
<g>
</g>
<g>
</g>
<g>
</g>
<g>
</g>
<g>
</g>
<g>
</g>
<g>
</g>
<g>
</g>
<g>
</g>
<g>
</g>
<g>
</g>
</svg>
